<svg xmlns="http://www.w3.org/2000/svg" viewBox="0 0 190.643 39">  <path fill="#222221" d="M190.49 26.29c-.697 0-1.266-.563-1.266-1.27v-7.024c0-3.66-2.9-7.006-7.082-7.11-1.43-.046-3.448.08-5.655.492l.557 3.58c1.597-.312 3.157-.458 4.683-.39 2 .106 3.197 1.74 3.33 3.42l.03.42c-.896-.468-2.022-.96-5.105-.826-3.594.027-5.963 2.96-5.958 6.03v.357c0 3.893 2.445 6.174 6.832 6.174h1.104c1.522 0 2.817-.633 3.688-1.555.42.546 1.24 1.333 2.537 1.333l2.458-.005v-3.63l-.153.002zm-5.21-2.423c-.134 2.252-1.73 2.636-3.064 2.645h-1.022c-2.042-.007-3.055-.937-3.074-2.645v-.11c.067-1.81 1.006-2.595 3.104-2.59h1.008c1.933 0 3.05.813 3.05 2.666l-.003.034zm-21.123-13.15c-1.66.057-2.855.703-3.66 1.473l-.3.326-.005-.005c-1.238-1.454-3.187-2.017-5.448-1.792-1.28.09-2.328.65-2.877 1.32l-.013-1.025h-3.977l.006 18.912h4.297V17.58c.025-1.278.98-2.54 2.563-2.564 1.46-.005 2.57 1.276 2.55 2.563v12.34l4.3.005v-.005h.006V17.573c.023-1.273.972-2.536 2.558-2.56 1.45-.005 2.575 1.276 2.552 2.56V29.92h4.3V17.573c.083-5.064-3.108-7.026-6.853-6.855zm-20.63 14.303l-.014-7.023c.013-3.66-2.89-7.006-7.055-7.11-1.45-.046-3.47.08-5.664.492l.56 3.578c1.59-.31 3.143-.457 4.68-.39 2.002.107 3.187 1.74 3.327 3.422l.02.418c-.892-.467-2.008-.958-5.086-.825-3.604.027-5.974 2.96-5.968 6.03v.357c0 3.894 2.453 6.175 6.835 6.175h1.117c1.5 0 2.814-.633 3.673-1.555.426.547 1.245 1.334 2.536 1.334l2.458-.005v-3.63h-.145c-.7 0-1.274-.563-1.274-1.27zm-3.958-1.153c-.115 2.252-1.707 2.636-3.056 2.645H135.5c-2.03-.007-3.046-.937-3.073-2.645v-.11c.045-1.81.983-2.595 3.097-2.59h1.022c1.92 0 3.02.813 3.02 2.666l.003.034zm-21.042.667l-3.89-13.506h-4.73l6.25 18.904c.328 1.168.28 2.383-.593 3.217-.832.562-1.48.635-2.165.626-.517 0-1.097-.078-1.74-.234l.355 3.948c.77.204 1.548.304 2.354.304 2.99-.204 4.638-1.152 5.724-5.048l.782-2.813 5.835-18.907-4.72.003-3.462 13.504zm-11.72.486v-7.023c0-3.66-2.893-7.006-7.077-7.11-1.432-.046-3.444.08-5.658.492l.557 3.578c1.594-.31 3.166-.457 4.687-.39 1.998.107 3.19 1.74 3.324 3.422l.03.418c-.896-.467-2.017-.958-5.104-.825-3.588.027-5.96 2.96-5.955 6.03v.357c0 3.894 2.444 6.175 6.837 6.175h1.104c1.512 0 2.813-.633 3.677-1.555.43.547 1.252 1.334 2.543 1.334l2.458-.005v-3.63h-.152c-.695 0-1.268-.563-1.268-1.27zm-3.95-1.153c-.127 2.252-1.722 2.636-3.055 2.645H98.78c-2.04-.007-3.057-.937-3.072-2.645v-.11c.063-1.81 1.002-2.595 3.104-2.59h1.01c1.932 0 3.038.813 3.038 2.666l-.002.034zM81.74 10.717c-1.66.057-2.853.703-3.655 1.473l-.305.326v-.005c-1.236-1.454-3.188-2.017-5.45-1.792-1.277.09-2.33.65-2.873 1.32l-.015-1.025h-3.976v18.912h4.307V17.58c.022-1.278.975-2.54 2.558-2.564 1.456-.005 2.573 1.276 2.55 2.563v12.34l4.297.005v-.005h.015V17.573c.02-1.273.975-2.536 2.55-2.56 1.463-.005 2.58 1.276 2.56 2.56V29.92h4.296V17.573c.082-5.064-3.11-7.026-6.858-6.855zM61.116 25.02l-.016-7.023c.016-3.66-2.898-7.006-7.063-7.11-1.446-.046-3.463.08-5.655.492l.56 3.578c1.588-.31 3.145-.457 4.676-.39 1.998.107 3.188 1.74 3.324 3.422l.026.418c-.9-.467-2.01-.958-5.088-.825-3.602.027-5.973 2.96-5.973 6.03v.357c.005 3.894 2.46 6.175 6.844 6.175h1.112c1.495 0 2.81-.633 3.68-1.555.42.547 1.237 1.334 2.534 1.334l2.458-.005v-3.63h-.148c-.7 0-1.27-.563-1.27-1.27zm-3.956-1.153c-.118 2.252-1.707 2.636-3.057 2.645h-1.02c-2.027-.007-3.046-.937-3.076-2.645v-.11c.053-1.81.99-2.595 3.1-2.59h1.024c1.92 0 3.03.813 3.03 2.666v.034z"/>  <circle cx="19.538" cy="19.5" r="19.5" fill="#DC0019"/>  <g fill="#FFF">    <path d="M18.977 18.733c-1.103 2.265-.408 5.633-.637 7.897-.554.228-1.148-.175-.787 1.1.11.296.455.466.84.46.648-.006 1.42-.49 1.448-1.635.03-.986-.11-4.28.023-4.705 1.046-3.287 7.263-.345 9.463-1.73-3.04-1.708-6.69-1.334-10.35-1.387zM36.28 25.195c-.013-.17-.094-.344-.176-.514-.565-.75-2.726-.98-4.23-1.424-.526-.694-.62-2.293-1.95-2.667v2.353c.017 2.428 4.512.56 5.05 2.527.4 1.453-.012 2.703-1.45 2.813.07.257.22.485.608.606h.42c1.605-.274 1.943-1.704 1.728-3.695z"/>    <path d="M25.416 26.59c-.06-.128-.134-.25-.216-.36-.15-.206-.346-.398-.55-.538-.42-.305-.92-.46-1.48-.457-.175 0-.334.03-.492.06-.215.046-.437.128-.625.24-.07.034-.156.087-.232.135-.203.146-.407.332-.56.542-.304.41-.485.898-.45 1.465.064.55.21.992.56 1.447.45.572 1.08.882 1.782.917h.215c.496-.016.928-.186 1.302-.448.5-.362.846-.91.95-1.505.04-.23.058-.49.023-.736-.035-.275-.11-.532-.227-.76zM31.656 26.434c-.21-.176-.437-.328-.694-.403-.44-.168-1.004-.215-1.407-.14-.082.013-.17.042-.246.07-.432.158-.834.474-1.075.888-.208.355-.33.764-.31 1.226.007.11.013.21.037.31.064.385.232.728.48 1.02.127.152.28.3.437.41.19.133.396.238.63.31.07.017.14.04.22.052.024.006.048.012.065.018.034 0 .07.013.098.018.054 0 .102.014.146.014.07 0 .145.004.216 0 .076 0 .145 0 .216-.014.554-.07 1.04-.332 1.413-.753.175-.193.32-.42.403-.666.053-.146.1-.298.115-.456.11-.768-.193-1.45-.747-1.904zM3.028 23.8c0 .146-.046.263-.127.402-.256.41-.542.91-.635 1.424-.152.806.262 1.46.828 1.676.566.21 1.278-.017 1.716-.987.514-1.82 1.978-2.68 3.158-2.742 2.633-.076 4.565 1.82 4.646 3.66.006.146.013.29-.028.442-.607.386-1.273 1.175-1.342 2.236-.008.076 0 .36.017.44.077.452.462 1.06 1.168.984.504-.058.8-.5.982-1.04.082-.36.203-.706.39-1.033.146-.202.374-.395.637-.483.263-.086.555-.075.83.117.647.328 2.824 2.68 4.074 2.866.124.01.246 0 .37-.006l-.014-.02c-.898-.454-1.71-1.785-2.532-2.906-.64-.74-1.262-1.39-2.586-1.53-.183-.016-.355-.016-.537.014v-.054c.093-3.56-4.623-7.776-9.322-4.616.286-3.065-1.893-5.06-3.24-5.785-.712-.382-1.035-.565-1.207-.643-.154.906-.246 1.828-.27 2.768.146.028.462.148 1.107.568 1.1.714 1.975 2.242 1.92 4.25z"/>  </g></svg>